# xmcd
#
# Track frame offsets: 
#        170
#        39110
#        67950
#        100462
#        139500
#        168832
#
# Disc length: 3028 seconds
#
# Revision: 3
# Processed by: cddbd v1.5.2PL0 Copyright (c) Steve Scherf et al.
# Submitted via: ExactAudioCopy v0.99pb4
#
DISCID=420bd206
DTITLE=Creedence Clearwater Revival - Anniversary Edition - Bonus Disc
DYEAR=1990
DGENRE=Rock
TTITLE0=Suzie Q
TTITLE1=Pagan Baby
TTITLE2=Ramble Tamble
TTITLE3=Graveyard Train
TTITLE4=Effigy
TTITLE5=Keep On Chooglin (live)
EXTD=
EXTT0=
EXTT1=
EXTT2=
EXTT3=
EXTT4=
EXTT5=
PLAYORDER=
